<mxfile host="app.diagrams.net" modified="2024-04-06T06:03:23.020Z" agent="Mozilla/5.0 (Macintosh; Intel Mac OS X 10_15_7) AppleWebKit/537.36 (KHTML, like Gecko) Chrome/121.0.0.0 Safari/537.36" version="24.2.1" etag="yi1HUE08gIYBpmoGPuHs" type="github">
  <diagram name="Page-1" id="Wp1WLM7WrcBcyV8MldW7">
    <mxGraphModel>
      <root>
        <mxCell id="0" />
        <mxCell id="1" parent="0" />
      </root>
    </mxGraphModel>
  </diagram>
</mxfile>
